HIERARCHY
ROOT mixamorig:Hips
{
	OFFSET 0.000000 201.639420 0.000000
	CHANNELS 6 Xposition Yposition Zposition Xrotation Yrotation Zrotation
	JOINT mixamorig:Spine
	{
		OFFSET 0.006200 19.524994 -2.481800
		CHANNELS 3 Xrotation Yrotation Zrotation
		JOINT mixamorig:Spine1
		{
			OFFSET -0.000900 22.835007 -2.825400
			CHANNELS 3 Xrotation Yrotation Zrotation
			JOINT mixamorig:Spine2
			{
				OFFSET -0.020600 26.552490 -3.193300
				CHANNELS 3 Xrotation Yrotation Zrotation
				JOINT mixamorig:Neck
				{
					OFFSET -0.060000 30.701813 1.352200
					CHANNELS 3 Xrotation Yrotation Zrotation
					JOINT mixamorig:Head
					{
						OFFSET -0.087200 22.547607 3.670900
						CHANNELS 3 Xrotation Yrotation Zrotation
						JOINT mixamorig:HeadTop_End
						{
							OFFSET -0.830600 40.355194 7.893500
							CHANNELS 3 Xrotation Yrotation Zrotation
							End Site
							{
								OFFSET 0.000000 30.592346 0.000000
							}
						}
						JOINT mixamorig:RightEye
						{
							OFFSET -6.302100 18.118591 16.197100
							CHANNELS 3 Xrotation Yrotation Zrotation
							End Site
							{
								OFFSET 0.000000 30.592346 0.000000
							}
						}
						JOINT mixamorig:LeftEye
						{
							OFFSET 6.741500 18.382690 16.401899
							CHANNELS 3 Xrotation Yrotation Zrotation
							End Site
							{
								OFFSET 0.000000 30.592346 0.000000
							}
						}
					}
				}
				JOINT mixamorig:LeftShoulder
				{
					OFFSET 11.924900 18.230499 1.425400
					CHANNELS 3 Xrotation Yrotation Zrotation
					JOINT mixamorig:LeftArm
					{
						OFFSET 25.435989 -0.697632 -5.229300
						CHANNELS 3 Xrotation Yrotation Zrotation
						JOINT mixamorig:LeftForeArm
						{
							OFFSET 54.684776 0.000000 0.000000
							CHANNELS 3 Xrotation Yrotation Zrotation
							JOINT mixamorig:LeftHand
							{
								OFFSET 55.098175 0.000000 0.000000
								CHANNELS 3 Xrotation Yrotation Zrotation
								JOINT mixamorig:LeftHandMiddle1
								{
									OFFSET 23.369751 0.000000 0.000000
									CHANNELS 3 Xrotation Yrotation Zrotation
									JOINT mixamorig:LeftHandMiddle2
									{
										OFFSET 6.378677 0.000000 0.000000
										CHANNELS 3 Xrotation Yrotation Zrotation
										JOINT mixamorig:LeftHandMiddle3
										{
											OFFSET 6.148331 0.000000 0.000000
											CHANNELS 3 Xrotation Yrotation Zrotation
											JOINT mixamorig:LeftHandMiddle4
											{
												OFFSET 6.582504 0.000000 0.000000
												CHANNELS 3 Xrotation Yrotation Zrotation
												End Site
												{
													OFFSET -1.168900 6.395691 1.028606
												}
											}
										}
									}
								}
								JOINT mixamorig:LeftHandThumb1
								{
									OFFSET 7.235672 -3.848206 5.434273
									CHANNELS 3 Xrotation Yrotation Zrotation
									JOINT mixamorig:LeftHandThumb2
									{
										OFFSET 6.568451 -3.792297 3.792300
										CHANNELS 3 Xrotation Yrotation Zrotation
										JOINT mixamorig:LeftHandThumb3
										{
											OFFSET 6.063080 -3.500519 3.500518
											CHANNELS 3 Xrotation Yrotation Zrotation
											JOINT mixamorig:LeftHandThumb4
											{
												OFFSET 4.793182 -2.767334 2.767349
												CHANNELS 3 Xrotation Yrotation Zrotation
												End Site
												{
													OFFSET 0.101639 6.054260 1.275483
												}
											}
										}
									}
								}
								JOINT mixamorig:LeftHandIndex1
								{
									OFFSET 23.101074 -0.309540 4.992809
									CHANNELS 3 Xrotation Yrotation Zrotation
									JOINT mixamorig:LeftHandIndex2
									{
										OFFSET 6.226883 0.000000 0.000000
										CHANNELS 3 Xrotation Yrotation Zrotation
										JOINT mixamorig:LeftHandIndex3
										{
											OFFSET 6.094330 0.000000 0.000000
											CHANNELS 3 Xrotation Yrotation Zrotation
											JOINT mixamorig:LeftHandIndex4
											{
												OFFSET 5.482605 0.000000 0.000000
												CHANNELS 3 Xrotation Yrotation Zrotation
												End Site
												{
													OFFSET -1.427902 5.233032 0.797164
												}
											}
										}
									}
								}
								JOINT mixamorig:LeftHandRing1
								{
									OFFSET 22.299240 0.021149 -3.964172
									CHANNELS 3 Xrotation Yrotation Zrotation
									JOINT mixamorig:LeftHandRing2
									{
										OFFSET 6.321869 0.000000 0.000000
										CHANNELS 3 Xrotation Yrotation Zrotation
										JOINT mixamorig:LeftHandRing3
										{
											OFFSET 5.899796 0.000000 0.000000
											CHANNELS 3 Xrotation Yrotation Zrotation
											JOINT mixamorig:LeftHandRing4
											{
												OFFSET 6.517899 0.000000 0.000000
												CHANNELS 3 Xrotation Yrotation Zrotation
												End Site
												{
													OFFSET -1.637299 6.232208 0.980890
												}
											}
										}
									}
								}
								JOINT mixamorig:LeftHandPinky1
								{
									OFFSET 20.463791 -0.302338 -8.562233
									CHANNELS 3 Xrotation Yrotation Zrotation
									JOINT mixamorig:LeftHandPinky2
									{
										OFFSET 6.908646 0.000000 0.000000
										CHANNELS 3 Xrotation Yrotation Zrotation
										JOINT mixamorig:LeftHandPinky3
										{
											OFFSET 4.622849 0.000000 0.000000
											CHANNELS 3 Xrotation Yrotation Zrotation
											JOINT mixamorig:LeftHandPinky4
											{
												OFFSET 5.216080 0.000000 0.000000
												CHANNELS 3 Xrotation Yrotation Zrotation
												End Site
												{
													OFFSET -0.606308 5.116241 0.814926
												}
											}
										}
									}
								}
							}
						}
					}
				}
				JOINT mixamorig:RightShoulder
				{
					OFFSET -12.001300 18.284088 1.348900
					CHANNELS 3 Xrotation Yrotation Zrotation
					JOINT mixamorig:RightArm
					{
						OFFSET -25.308500 -0.751312 -5.164599
						CHANNELS 3 Xrotation Yrotation Zrotation
						JOINT mixamorig:RightForeArm
						{
							OFFSET -54.684429 0.000000 0.000000
							CHANNELS 3 Xrotation Yrotation Zrotation
							JOINT mixamorig:RightHand
							{
								OFFSET -55.150291 0.000000 0.000000
								CHANNELS 3 Xrotation Yrotation Zrotation
								JOINT mixamorig:RightHandMiddle1
								{
									OFFSET -23.317566 0.000000 0.000000
									CHANNELS 3 Xrotation Yrotation Zrotation
									JOINT mixamorig:RightHandMiddle2
									{
										OFFSET -6.378403 0.000000 0.000000
										CHANNELS 3 Xrotation Yrotation Zrotation
										JOINT mixamorig:RightHandMiddle3
										{
											OFFSET -6.148193 0.000000 0.000000
											CHANNELS 3 Xrotation Yrotation Zrotation
											JOINT mixamorig:RightHandMiddle4
											{
												OFFSET -6.583389 0.000000 0.000000
												CHANNELS 3 Xrotation Yrotation Zrotation
												End Site
												{
													OFFSET 1.171692 6.395905 1.029786
												}
											}
										}
									}
								}
								JOINT mixamorig:RightHandThumb1
								{
									OFFSET -7.190521 -3.860474 5.435846
									CHANNELS 3 Xrotation Yrotation Zrotation
									JOINT mixamorig:RightHandThumb2
									{
										OFFSET -6.567429 -3.791718 3.791708
										CHANNELS 3 Xrotation Yrotation Zrotation
										JOINT mixamorig:RightHandThumb3
										{
											OFFSET -6.062469 -3.500153 3.500166
											CHANNELS 3 Xrotation Yrotation Zrotation
											JOINT mixamorig:RightHandThumb4
											{
												OFFSET -4.792618 -2.767029 2.767022
												CHANNELS 3 Xrotation Yrotation Zrotation
												End Site
												{
													OFFSET -0.100327 6.053253 1.276754
												}
											}
										}
									}
								}
								JOINT mixamorig:RightHandIndex1
								{
									OFFSET -23.048981 -0.310791 4.992554
									CHANNELS 3 Xrotation Yrotation Zrotation
									JOINT mixamorig:RightHandIndex2
									{
										OFFSET -6.227539 0.000000 0.000000
										CHANNELS 3 Xrotation Yrotation Zrotation
										JOINT mixamorig:RightHandIndex3
										{
											OFFSET -6.095047 0.000000 0.000000
											CHANNELS 3 Xrotation Yrotation Zrotation
											JOINT mixamorig:RightHandIndex4
											{
												OFFSET -5.484772 0.000000 0.000000
												CHANNELS 3 Xrotation Yrotation Zrotation
												End Site
												{
													OFFSET 1.420593 5.237305 0.797056
												}
											}
										}
									}
								}
								JOINT mixamorig:RightHandRing1
								{
									OFFSET -22.246323 0.020569 -3.963762
									CHANNELS 3 Xrotation Yrotation Zrotation
									JOINT mixamorig:RightHandRing2
									{
										OFFSET -6.322128 0.000000 0.000000
										CHANNELS 3 Xrotation Yrotation Zrotation
										JOINT mixamorig:RightHandRing3
										{
											OFFSET -5.900024 0.000000 0.000000
											CHANNELS 3 Xrotation Yrotation Zrotation
											JOINT mixamorig:RightHandRing4
											{
												OFFSET -6.518356 0.000000 0.000000
												CHANNELS 3 Xrotation Yrotation Zrotation
												End Site
												{
													OFFSET 1.636398 6.232697 0.982186
												}
											}
										}
									}
								}
								JOINT mixamorig:RightHandPinky1
								{
									OFFSET -20.411011 -0.303314 -8.561701
									CHANNELS 3 Xrotation Yrotation Zrotation
									JOINT mixamorig:RightHandPinky2
									{
										OFFSET -6.907349 0.000000 0.000000
										CHANNELS 3 Xrotation Yrotation Zrotation
										JOINT mixamorig:RightHandPinky3
										{
											OFFSET -4.623840 0.000000 0.000000
											CHANNELS 3 Xrotation Yrotation Zrotation
											JOINT mixamorig:RightHandPinky4
											{
												OFFSET -5.218353 0.000000 0.000000
												CHANNELS 3 Xrotation Yrotation Zrotation
												End Site
												{
													OFFSET 0.602097 5.118835 0.816273
												}
											}
										}
									}
								}
							}
						}
					}
				}
			}
		}
	}
	JOINT mixamorig:LeftUpLeg
	{
		OFFSET 18.168400 -13.561905 -0.039000
		CHANNELS 3 Xrotation Yrotation Zrotation
		JOINT mixamorig:LeftLeg
		{
			OFFSET 0.577358 -80.825211 -3.695000
			CHANNELS 3 Xrotation Yrotation Zrotation
			JOINT mixamorig:LeftFoot
			{
				OFFSET -0.577356 -83.370262 -6.520700
				CHANNELS 3 Xrotation Yrotation Zrotation
				JOINT mixamorig:LeftToeBase
				{
					OFFSET 0.750401 -20.798306 25.135401
					CHANNELS 3 Xrotation Yrotation Zrotation
					JOINT mixamorig:LeftToe_End
					{
						OFFSET -0.000500 0.001200 19.917799
						CHANNELS 3 Xrotation Yrotation Zrotation
						End Site
						{
							OFFSET 0.000000 19.917805 0.000000
						}
					}
				}
			}
		}
	}
	JOINT mixamorig:RightUpLeg
	{
		OFFSET -18.162500 -13.585098 -0.041000
		CHANNELS 3 Xrotation Yrotation Zrotation
		JOINT mixamorig:RightLeg
		{
			OFFSET -0.595024 -80.945297 -3.631900
			CHANNELS 3 Xrotation Yrotation Zrotation
			JOINT mixamorig:RightFoot
			{
				OFFSET 0.595024 -83.218193 -6.561200
				CHANNELS 3 Xrotation Yrotation Zrotation
				JOINT mixamorig:RightToeBase
				{
					OFFSET -0.753601 -20.807106 25.115000
					CHANNELS 3 Xrotation Yrotation Zrotation
					JOINT mixamorig:RightToe_End
					{
						OFFSET 0.000299 0.001700 19.918200
						CHANNELS 3 Xrotation Yrotation Zrotation
						End Site
						{
							OFFSET 0.000000 19.918203 0.000000
						}
					}
				}
			}
		}
	}
}
MOTION
Frames: 5
Frame Time: 0.033333
7.866774 179.829498 -59.569500 1.397848 14.757559 -8.746590 25.347824 2.037016 4.844003 7.495012 0.305063 1.365195 7.497196 0.253504 1.366788 1.773684 0.488217 1.011368 -27.375950 11.357360 -14.930638 -0.000000 -0.000001 0.000001 -0.000000 -0.000001 0.000001 -0.000000 -0.000001 0.000001 1.588520 -19.990113 -8.049976 1.858058 -0.837344 -46.821469 0.000029 -56.818988 -0.000007 1.876244 24.991589 -7.264030 -1.259360 -2.220697 -20.367460 1.245937 3.955408 -34.956782 0.381894 2.265382 -19.135291 -0.000001 0.000000 0.000002 1.211465 8.707913 7.832561 6.645180 18.928322 -1.409407 7.103024 20.785263 -1.805871 0.000002 0.000002 0.000003 -0.179925 1.089840 -24.404720 1.152434 3.818463 -33.577388 0.050615 0.835089 -6.937257 0.000000 0.000002 -0.000003 1.047476 3.857718 -23.184210 2.339400 5.174852 -48.629359 0.284058 1.961031 -16.482595 -0.000000 -0.000001 -0.000001 0.984983 3.770775 -22.090012 1.320675 -0.025143 -36.236189 0.030073 0.644201 -5.346045 -0.000002 0.000001 0.000002 1.901423 3.009055 10.696299 -29.737206 3.893848 60.536718 -0.000000 27.876550 -0.000003 18.904791 -11.290100 2.971280 0.373461 -2.367852 25.740241 1.362213 -4.138684 36.423801 0.066964 0.964685 -7.942021 -0.000003 0.000001 -0.000002 -8.663509 -7.172196 -9.031183 12.176955 -27.112038 1.421311 0.475526 -4.641236 -2.146149 -0.000002 -0.000001 -0.000002 -0.324270 -0.172891 18.668189 0.882902 -3.395988 29.138898 0.343290 -2.161763 18.043931 0.000001 0.000001 -0.000001 0.333134 -2.374227 28.257865 1.098515 -3.756037 32.594800 0.406845 -2.347762 19.659144 0.000003 -0.000002 0.000006 0.747523 -3.438498 17.486036 1.726706 -4.590426 41.210571 0.763957 -3.173607 27.063438 -0.000002 -0.000001 -0.000000 -49.888494 0.096460 5.354213 51.977545 -4.170507 6.042901 -5.687467 0.413810 -0.850806 -3.487683 -0.000000 0.000000 -0.000000 -0.000000 0.000000 -39.364945 -9.214463 -9.859654 48.397009 -9.807863 6.146686 -6.631838 -3.534169 5.613197 -0.192232 -0.000003 0.000003 0.000000 -0.000000 0.000000 
7.854387 176.924286 -62.755074 1.596023 15.122548 -8.283763 26.134406 2.084514 5.155916 7.737718 0.292421 1.459702 7.739810 0.237696 1.461914 1.326869 0.057126 1.267457 -30.735534 8.079495 -12.122256 -0.000000 0.000000 0.000001 -0.000000 0.000000 0.000001 -0.000000 0.000000 0.000001 1.579951 -20.233694 -8.026180 -3.086118 -1.228725 -45.875392 -0.000003 -57.150720 -0.000007 2.141546 24.317972 -6.492858 -1.303145 -2.343419 -20.364931 1.248623 3.959225 -34.995570 0.381924 2.265459 -19.136001 0.000001 0.000002 -0.000001 0.973549 8.354495 8.309357 6.598504 18.771627 -1.374627 7.129248 20.835890 -1.820291 0.000001 0.000001 -0.000004 -0.140511 1.181403 -24.455197 1.157099 3.825471 -33.647332 0.051586 0.842996 -7.003354 -0.000002 -0.000000 0.000005 0.964618 3.665928 -23.177451 2.326947 5.163909 -48.491136 0.282683 1.956366 -16.442215 0.000000 -0.000002 -0.000003 0.881713 3.554423 -21.351380 1.320579 -0.025263 -36.234953 0.030251 0.646074 -5.361700 -0.000002 -0.000001 -0.000002 1.902149 3.066734 10.660440 -28.686648 3.977197 59.240430 0.000011 27.978055 -0.000029 19.706778 -11.925260 4.719831 0.330238 -2.277025 25.713495 1.353975 -4.127526 36.309723 0.066971 0.964685 -7.942024 0.000003 0.000001 -0.000001 -8.721281 -7.071621 -8.902533 12.134502 -27.020662 1.409867 0.442869 -4.553121 -2.145547 0.000001 -0.000003 0.000002 -0.353097 -0.043318 18.323917 0.872631 -3.377525 28.965125 0.289777 -1.990156 16.566909 -0.000002 -0.000001 0.000004 0.403127 -2.504506 28.247559 1.099745 -3.757953 32.613347 0.405633 -2.344385 19.629714 -0.000001 -0.000001 0.000003 0.790153 -3.569060 17.523093 1.723308 -4.586549 41.168067 0.763117 -3.171971 27.048154 0.000001 0.000001 -0.000002 -52.831069 -0.035686 4.588668 54.568536 -3.699099 5.256873 -6.049733 0.324932 -0.057087 -3.820872 -0.000001 -0.000000 0.000000 0.000001 0.000000 -42.986950 -8.984183 -11.369331 52.099201 -9.861078 5.775507 -6.957172 -2.873608 5.995760 -0.163180 -0.000003 -0.000000 -0.000000 -0.000002 0.000000 
7.945265 173.526978 -65.969002 1.469208 15.090719 -7.602665 26.761733 2.192991 5.288115 7.934699 0.315606 1.516406 7.936888 0.262251 1.518472 1.239630 -0.241500 1.013998 -33.129296 4.664118 -8.916978 -0.000000 -0.000002 -0.000000 -0.000000 -0.000002 -0.000000 -0.000000 -0.000002 -0.000000 1.627271 -20.334175 -8.050761 -7.898823 -1.480213 -45.598165 -0.000023 -57.704416 -0.000027 2.010040 23.319984 -5.542040 -1.364651 -2.512047 -20.376338 1.250177 3.961435 -35.018165 0.381831 2.265205 -19.133762 0.000001 0.000000 -0.000000 0.709798 7.941597 8.810626 6.543572 18.586055 -1.333664 7.152213 20.880129 -1.832913 -0.000001 -0.000001 0.000004 -0.122550 1.239170 -24.692196 1.160669 3.830820 -33.700922 0.052205 0.848016 -7.045250 -0.000001 0.000001 -0.000003 0.860577 3.424476 -23.175028 2.308173 5.147300 -48.282273 0.278875 1.943430 -16.330313 -0.000001 0.000001 0.000004 0.798697 3.371502 -20.730714 1.323921 -0.020718 -36.281620 0.030289 0.646439 -5.364647 -0.000002 -0.000003 -0.000002 1.894795 3.233027 10.530619 -26.851757 3.813069 58.179408 -0.000000 29.166926 0.000012 20.343939 -12.942886 6.116761 0.281648 -2.176232 25.725489 1.347783 -4.119098 36.223355 0.066969 0.964680 -7.942021 0.000000 0.000000 0.000002 -8.773328 -6.980228 -8.818748 12.084690 -26.913228 1.396489 0.408290 -4.459776 -2.144893 -0.000003 -0.000003 0.000004 -0.387973 0.103847 18.022928 0.862435 -3.359047 28.791351 0.227721 -1.768335 14.674810 -0.000000 -0.000004 -0.000000 0.479574 -2.649667 28.341250 1.105472 -3.766877 32.700849 0.399424 -2.326914 19.477263 0.000000 0.000001 0.000001 0.846139 -3.737871 17.588866 1.721231 -4.584189 41.142211 0.761710 -3.169205 27.022617 0.000003 -0.000003 0.000001 -55.711729 -0.092235 3.862991 57.539645 -2.902043 4.427752 -6.500443 0.230688 0.640006 -4.036927 0.000010 0.000001 -0.000000 0.000001 -0.000000 -46.687721 -8.595412 -12.968003 56.105008 -9.930558 5.281496 -7.304780 -1.740734 6.334381 -0.129722 0.000009 -0.000002 -0.000000 0.000001 0.000000 
8.216231 169.515457 -69.221603 0.991818 14.520272 -6.703967 27.193227 2.381101 5.172100 8.076909 0.386482 1.518208 8.079359 0.340045 1.519174 1.441341 -0.449487 0.489993 -34.083911 1.312789 -5.693049 0.000000 -0.000001 -0.000000 0.000000 -0.000001 -0.000000 0.000000 -0.000001 -0.000000 1.721436 -20.282172 -8.118363 -12.041945 -1.859851 -45.773903 -0.000010 -58.243332 -0.000023 1.458817 22.074072 -4.638857 -1.434093 -2.703144 -20.386781 1.248926 3.959656 -34.999955 0.381606 2.264551 -19.127965 0.000001 0.000001 -0.000001 0.470534 7.544715 9.218880 6.491449 18.408845 -1.294705 7.163865 20.902541 -1.839320 0.000002 0.000004 -0.000003 -0.133616 1.240863 -25.032601 1.162309 3.833277 -33.725415 0.052298 0.848786 -7.051675 -0.000003 -0.000000 -0.000001 0.751479 3.170945 -23.167078 2.277320 5.119733 -47.937471 0.272224 1.920581 -16.132977 0.000000 -0.000000 0.000002 0.756901 3.277128 -20.383839 1.329162 -0.013595 -36.354908 0.030118 0.644585 -5.349268 -0.000001 -0.000001 -0.000002 1.872890 3.468131 10.320698 -24.277089 3.514604 57.292142 -0.000001 31.246524 -0.000007 20.137766 -14.174393 6.995081 0.233473 -2.077727 25.769933 1.344090 -4.114069 36.172077 0.066967 0.964686 -7.942021 -0.000006 0.000002 0.000000 -8.815659 -6.903521 -8.798394 12.030832 -26.796842 1.382056 0.375426 -4.371111 -2.144273 0.000002 -0.000004 0.000001 -0.426460 0.255000 17.807439 0.853337 -3.342516 28.636043 0.167472 -1.519824 12.574904 -0.000004 -0.000002 0.000003 0.556241 -2.796309 28.535598 1.115238 -3.781993 32.849020 0.389099 -2.297518 19.221402 0.000001 -0.000001 -0.000003 0.907883 -3.919827 17.685187 1.720698 -4.583576 41.135419 0.759853 -3.165561 26.989021 -0.000003 0.000004 0.000002 -58.589472 -0.071807 3.263989 60.994272 -1.765160 3.556037 -7.004756 0.137828 1.201672 -4.125090 0.000009 0.000001 -0.000000 0.000001 0.000000 -50.521110 -7.947577 -14.488073 60.392703 -9.582552 4.593062 -7.637239 -0.608939 6.559296 -0.120306 -0.000003 0.000000 -0.000000 -0.000001 0.000000 
8.655699 164.790970 -72.492661 0.149980 13.442918 -5.749122 27.494952 2.607282 4.873667 8.181500 0.487034 1.479237 8.184038 0.451862 1.478513 1.775156 -0.615608 0.142079 -33.550507 -1.499114 -2.956520 0.000000 -0.000001 0.000000 0.000000 -0.000001 0.000000 0.000000 -0.000001 0.000000 1.834656 -20.137894 -8.207309 -15.220505 -2.191531 -46.275553 0.000012 -58.642112 0.000031 0.833699 20.704405 -3.886949 -1.497284 -2.883776 -20.373262 1.243746 3.952280 -34.925045 0.381319 2.263736 -19.120749 -0.000000 0.000005 0.000004 0.290500 7.223691 9.428595 6.452399 18.275366 -1.265474 7.159806 20.894763 -1.837071 0.000004 0.000004 0.000002 -0.168221 1.188125 -25.310021 1.162065 3.832901 -33.721727 0.051967 0.846072 -7.029029 -0.000001 -0.000001 0.000003 0.653925 2.944004 -23.140946 2.231181 5.077882 -47.418138 0.263403 1.889853 -15.867814 0.000001 0.000000 0.000004 0.758769 3.285039 -20.319813 1.332676 -0.008802 -36.404225 0.029770 0.640899 -5.318556 -0.000001 -0.000002 0.000001 1.834438 3.678383 10.087024 -21.453160 3.344164 56.550179 0.000012 33.640823 -0.000013 19.001848 -15.373637 7.616679 0.196516 -2.003882 25.836575 1.342612 -4.112064 36.151365 0.066969 0.964680 -7.942019 0.000001 -0.000000 -0.000000 -8.842814 -6.852713 -8.812500 11.985070 -26.697779 1.369829 0.350426 -4.303580 -2.143812 0.000001 -0.000003 0.000002 -0.460730 0.374703 17.734330 0.846517 -3.330017 28.518823 0.123743 -1.308562 10.803366 0.000002 0.000003 -0.000005 0.618391 -2.914570 28.752989 1.125127 -3.797246 32.998707 0.379297 -2.269231 18.975326 0.000000 -0.000001 -0.000001 0.955001 -4.053750 17.788895 1.721153 -4.584097 41.141341 0.758061 -3.162071 26.956574 0.000003 -0.000001 0.000001 -61.541521 -0.001411 2.978393 65.027342 -0.484867 2.666877 -7.519079 0.049541 1.650207 -4.112613 -0.000009 -0.000001 0.000001 0.000001 0.000000 -54.430706 -7.063321 -15.653730 64.870931 -7.890844 3.748362 -7.905853 -0.617173 6.473264 -0.151281 0.000002 -0.000003 -0.000000 0.000002 0.000000 
